<?xml version="1.0" standalone="no"?><!DOCTYPE svg PUBLIC "-//W3C//DTD SVG 1.1//EN" "http://www.w3.org/Graphics/SVG/1.1/DTD/svg11.dtd"><svg t="1482313596676" class="icon" style="" viewBox="0 0 1024 1024" version="1.1" xmlns="http://www.w3.org/2000/svg" p-id="8165" xmlns:xlink="http://www.w3.org/1999/xlink" width="200" height="200"><defs><style type="text/css"></style></defs><path d="M484.706889 267.018449v0.273223h54.587246c15.114233 0 27.365254-12.252045 27.365254-27.367301 0-15.114233-12.252045-27.365254-27.365254-27.365254l-0.039909 0.001023h-50.708916a27.595498 27.595498 0 0 0-3.837398-0.274246c-15.114233 0-27.367301 12.252045-27.367301 27.365255 0 15.115256 12.253068 27.367301 27.366278 27.3673zM484.633211 341.937766v0.2722h54.587246c15.114233 0 27.365254-12.252045 27.365254-27.367301 0-15.114233-12.252045-27.365254-27.365254-27.365255l-0.039909 0.001024h-50.713009a27.53717 27.53717 0 0 0-3.833305-0.273223c-15.114233 0-27.367301 12.252045-27.367301 27.365254 0 15.115256 12.253068 27.367301 27.366278 27.367301zM539.628756 362.395704l-0.039909 0.001023h-50.711986a27.548426 27.548426 0 0 0-3.833305-0.273223c-15.114233 0-27.367301 12.252045-27.367301 27.365255 0 15.115256 12.253068 27.366278 27.366278 27.367301v0.272199H539.628756c15.114233 0 27.365254-12.252045 27.365254-27.367301 0-15.114233-12.252045-27.365254-27.365254-27.365254z" fill="#ffaeae" p-id="8166"></path><path d="M605.22473 129.85551H418.79369l-0.020466-0.001023c-24.042579 0-43.532469 19.490913-43.532469 43.532469v677.226088c0 24.041556 19.48989 43.532469 43.532469 43.532469h186.451506c24.043602 0 43.532469-19.490913 43.532469-43.532469V173.387979c0-24.041556-19.488867-43.532469-43.532469-43.532469z m-93.226265 657.518235c-39.070854 0-70.744227-31.67235-70.744227-70.744228s31.673373-70.745251 70.744227-70.745251 70.744227 31.673373 70.744227 70.745251-31.673373 70.744227-70.744227 70.744228z m82.026178-574.816675v317.358975c0 15.115256-12.252045 27.366278-27.365254 27.366278H457.337541c-15.112186-0.00307-27.363208-12.254092-27.363208-27.367301 0-1.823532 0.183172-3.604084 0.52291-5.328356V217.884402a27.535123 27.535123 0 0 1-0.52291-5.328355c0-15.113209 12.252045-27.363208 27.363208-27.365254H566.659389c15.113209 0 27.365254 12.252045 27.365254 27.366277z" fill="#ffaeae" p-id="8167"></path><path d="M812.955888 267.018449v0.273223h54.587246c15.114233 0 27.365254-12.252045 27.365254-27.367301 0-15.114233-12.252045-27.365254-27.365254-27.365254l-0.039909 0.001023h-50.707892a27.606755 27.606755 0 0 0-3.837398-0.274246c-15.114233 0-27.367301 12.252045-27.367301 27.365255 0 15.115256 12.253068 27.367301 27.365254 27.3673zM812.88221 341.937766v0.2722h54.587246c15.114233 0 27.365254-12.252045 27.365254-27.367301 0-15.114233-12.252045-27.365254-27.365254-27.365255l-0.039909 0.001024h-50.711986a27.548426 27.548426 0 0 0-3.833305-0.273223c-15.114233 0-27.367301 12.252045-27.3673 27.365254 0 15.115256 12.253068 27.367301 27.365254 27.367301zM867.877755 362.395704l-0.039909 0.001023h-50.711985a27.53717 27.53717 0 0 0-3.833305-0.273223c-15.114233 0-27.367301 12.252045-27.367301 27.365255 0 15.115256 12.253068 27.366278 27.366277 27.367301v0.272199H867.877755c15.114233 0 27.365254-12.252045 27.365254-27.367301 0-15.114233-12.251022-27.365254-27.365254-27.365254z" fill="#ffaeae" p-id="8168"></path><path d="M933.474752 129.85551H747.042689l-0.020466-0.001023c-24.041556 0-43.532469 19.490913-43.532469 43.532469v677.226088c0 24.041556 19.490913 43.532469 43.532469 43.532469H933.473729c24.043602 0 43.532469-19.490913 43.532469-43.532469V173.387979c0.001023-24.041556-19.487843-43.532469-43.531446-43.532469z m-93.227288 657.518235c-39.070854 0-70.744227-31.67235-70.744227-70.744228s31.673373-70.745251 70.744227-70.745251 70.744227 31.673373 70.744228 70.745251-31.673373 70.744227-70.744228 70.744228z m82.027202-574.816675v317.358975c0 15.115256-12.252045 27.366278-27.365255 27.366278H785.58654c-15.112186-0.00307-27.363208-12.254092-27.363207-27.368325 0-1.822508 0.183172-3.603061 0.523932-5.328355V217.884402a27.455305 27.455305 0 0 1-0.523932-5.328355c0-15.113209 12.252045-27.363208 27.363207-27.365254h109.321848c15.114233 0 27.366278 12.252045 27.366278 27.366277z" fill="#ffaeae" p-id="8169"></path><path d="M156.45789 267.018449v0.273223h54.587245c15.114233 0 27.365254-12.252045 27.365255-27.367301 0-15.114233-12.252045-27.365254-27.365255-27.365254l-0.039909 0.001023h-50.708915a27.595498 27.595498 0 0 0-3.837398-0.274246c-15.114233 0-27.367301 12.252045-27.367301 27.365255-0.001023 15.115256 12.253068 27.367301 27.366278 27.3673zM156.383188 341.937766v0.2722h54.587246c15.114233 0 27.365254-12.252045 27.365254-27.367301 0-15.114233-12.252045-27.365254-27.365254-27.365255l-0.039909 0.001024h-50.713008a27.53717 27.53717 0 0 0-3.833305-0.273223c-15.114233 0-27.367301 12.252045-27.367301 27.365254 0 15.115256 12.254092 27.367301 27.366277 27.367301zM211.378733 362.395704l-0.039909 0.001023h-50.711985a27.548426 27.548426 0 0 0-3.833305-0.273223c-15.114233 0-27.367301 12.252045-27.367301 27.365255 0 15.115256 12.253068 27.366278 27.366278 27.367301v0.272199H211.378733c15.114233 0 27.365254-12.252045 27.365255-27.367301 0.001023-15.114233-12.251022-27.365254-27.365255-27.365254z" fill="#ffaeae" p-id="8170"></path><path d="M276.97573 129.85551H90.543667l-0.020466-0.001023c-24.042579 0-43.532469 19.490913-43.532469 43.532469v677.226088c0 24.041556 19.48989 43.532469 43.532469 43.532469h186.451506c24.043602 0 43.532469-19.490913 43.532469-43.532469V173.387979c0.001023-24.041556-19.487843-43.532469-43.531446-43.532469zM183.748443 787.373745c-39.070854 0-70.744227-31.67235-70.744228-70.744228s31.673373-70.745251 70.744228-70.745251 70.744227 31.673373 70.744227 70.745251-31.673373 70.744227-70.744227 70.744228z m82.027201-574.816675v317.358975c0 15.115256-12.252045 27.366278-27.365254 27.366278H129.087519c-15.112186-0.00307-27.363208-12.254092-27.363208-27.367301 0-1.823532 0.183172-3.604084 0.522909-5.328356V217.884402a27.535123 27.535123 0 0 1-0.522909-5.328355c0-15.113209 12.252045-27.363208 27.363208-27.365254h109.321847c15.114233 0 27.366278 12.252045 27.366278 27.366277z" fill="#ffaeae" p-id="8171"></path></svg>